<svg width="32" height="32" viewBox="0 0 32 32" fill="none" xmlns="http://www.w3.org/2000/svg">
<path d="M8 20H11.2C11.7111 20 12.0942 19.872 12.3493 19.616C12.6053 19.3609 12.7333 18.9778 12.7333 18.4667V13.5333C12.7333 13.0222 12.6053 12.6387 12.3493 12.3827C12.0942 12.1276 11.7111 12 11.2 12H8V20ZM14.5 20H17.7667V18.4667H15.0333V16.7333H16.7667V15.2H15.0333V13.5333H17.7667V12H14.5C14.2333 12 14 12.1 13.8 12.3C13.6 12.5 13.5 12.7333 13.5 13V19C13.5 19.2667 13.6 19.5 13.8 19.7C14 19.9 14.2333 20 14.5 20ZM21.3667 19.9667C21.5889 19.9667 21.8111 19.8942 22.0333 19.7493C22.2556 19.6053 22.4222 19.3444 22.5333 18.9667L24.4 12H22.8L21.3667 17.4667L19.9333 12H18.3333L20.2 18.9667C20.3111 19.3444 20.4889 19.6053 20.7333 19.7493C20.9778 19.8942 21.1889 19.9667 21.3667 19.9667ZM9.53333 18.4667V13.5333H11.2V18.4667H9.53333ZM6.66667 28C5.93333 28 5.30533 27.7391 4.78267 27.2173C4.26089 26.6947 4 26.0667 4 25.3333V6.66667C4 5.93333 4.26089 5.30533 4.78267 4.78267C5.30533 4.26089 5.93333 4 6.66667 4H25.3333C26.0667 4 26.6947 4.26089 27.2173 4.78267C27.7391 5.30533 28 5.93333 28 6.66667V25.3333C28 26.0667 27.7391 26.6947 27.2173 27.2173C26.6947 27.7391 26.0667 28 25.3333 28H6.66667ZM6.66667 25.3333H25.3333V6.66667H6.66667V25.3333ZM6.66667 25.3333V6.66667V25.3333Z" fill="#C5C5C5"/>
</svg>
