<svg width="32" height="32" viewBox="0 0 32 32" fill="none" xmlns="http://www.w3.org/2000/svg">
<path d="M12.4171 4.11583L11.5804 4.21654C11.5804 4.21654 7.82607 4.6269 5.08429 6.82869H5.05214L5.01786 6.86083C4.40286 7.42654 4.135 8.1219 3.71179 9.13869C3.21291 10.362 2.78821 11.6143 2.44 12.8887C1.645 15.7633 1 19.2455 1 22.4308V22.6987L1.13393 22.9665C2.12607 24.7076 3.8875 25.8165 5.52036 26.5826C7.15214 27.3487 8.56321 27.7548 9.53821 27.788L10.1746 27.8212L10.5089 27.2523L11.6811 25.1758C12.9239 25.4565 14.3554 25.6451 16 25.6451C17.6446 25.6451 19.0761 25.4565 20.3189 25.1758L21.4911 27.2523L21.8264 27.8212L22.4618 27.788C23.4368 27.7548 24.8479 27.3487 26.4796 26.5826C28.1125 25.8165 29.8739 24.7076 30.8661 22.9665L31 22.6987V22.4308C31 19.2455 30.355 15.7633 29.56 12.8887C29.2118 11.6143 28.7871 10.362 28.2882 9.13869C27.865 8.12083 27.5971 7.42654 26.9821 6.8619L26.9489 6.82761H26.9146C24.175 4.6269 20.4196 4.21654 20.4196 4.21654L19.5829 4.11583L19.2807 4.88619C19.2807 4.88619 18.9711 5.66833 18.7793 6.56083C17.8582 6.43374 16.9298 6.36646 16 6.3594C15.4268 6.3594 14.4357 6.3969 13.2207 6.56083C13.094 5.99118 12.9261 5.43149 12.7182 4.88619L12.4171 4.11583ZM10.9439 6.56083C10.99 6.71083 11.0361 6.84047 11.0779 6.96262C9.6925 7.30547 8.215 7.82833 6.85964 8.6694L7.9975 10.478C10.7768 8.75297 14.7689 8.50226 16 8.50226C17.23 8.50226 21.2232 8.75297 24.0025 10.478L25.1404 8.6694C23.785 7.82833 22.3075 7.30547 20.9221 6.96154C20.9639 6.84047 21.01 6.71083 21.0561 6.55976C22.0557 6.76119 23.965 7.2219 25.5421 8.46904C25.5336 8.47333 25.9439 9.09261 26.3125 9.97547C26.6896 10.884 27.1075 12.0937 27.4846 13.4576C28.2089 16.073 28.7779 19.2583 28.8239 22.0623C28.1489 23.0919 26.8986 24.0208 25.5754 24.6412C24.7455 25.0333 23.8676 25.3143 22.9643 25.4769L22.4286 24.5737C22.7468 24.4558 23.0607 24.3273 23.3329 24.2051C24.9818 23.4808 25.8775 22.6987 25.8775 22.6987L24.4707 21.0915C24.4707 21.0915 23.8686 21.6444 22.4618 22.2637C21.0571 22.883 18.9089 23.5023 16 23.5023C13.0911 23.5023 10.9439 22.883 9.53821 22.2637C8.13143 21.6444 7.52929 21.0915 7.52929 21.0915L6.1225 22.6987C6.1225 22.6987 7.01821 23.4808 8.66714 24.2051C8.93929 24.3273 9.25321 24.4569 9.57143 24.5737L9.03571 25.478C8.13194 25.3148 7.25364 25.0331 6.42357 24.6401C5.10143 24.0208 3.85 23.0919 3.17714 22.0623C3.22214 19.2583 3.79107 16.073 4.51643 13.4576C4.83695 12.2746 5.228 11.1118 5.6875 9.97547C6.05607 9.09261 6.46643 8.47333 6.45786 8.46904C8.035 7.2219 9.94429 6.76119 10.9439 6.56083ZM12.25 13.8594C11.4218 13.8594 10.6889 14.3319 10.2411 14.9308C9.79321 15.5298 9.57143 16.2658 9.57143 17.0737C9.57143 17.8815 9.79321 18.6176 10.2411 19.2165C10.6889 19.8155 11.4218 20.288 12.25 20.288C13.0782 20.288 13.8111 19.8155 14.2589 19.2165C14.7068 18.6176 14.9286 17.8815 14.9286 17.0737C14.9286 16.2658 14.7068 15.5298 14.2589 14.9308C13.8111 14.3319 13.0782 13.8594 12.25 13.8594ZM19.75 13.8594C18.9218 13.8594 18.1889 14.3319 17.7411 14.9308C17.2932 15.5298 17.0714 16.2658 17.0714 17.0737C17.0714 17.8815 17.2932 18.6176 17.7411 19.2165C18.1889 19.8155 18.9218 20.288 19.75 20.288C20.5782 20.288 21.3111 19.8155 21.7589 19.2165C22.2068 18.6176 22.4286 17.8815 22.4286 17.0737C22.4286 16.2658 22.2068 15.5298 21.7589 14.9308C21.3111 14.3319 20.5782 13.8594 19.75 13.8594ZM12.25 16.0023C12.3089 16.0023 12.3839 16.0237 12.5179 16.2037C12.6518 16.3826 12.7857 16.6965 12.7857 17.0737C12.7857 17.4508 12.6518 17.7648 12.5179 17.9448C12.3839 18.1237 12.3089 18.1451 12.25 18.1451C12.1911 18.1451 12.1161 18.1237 11.9821 17.9437C11.805 17.6884 11.7114 17.3844 11.7143 17.0737C11.7143 16.6965 11.8482 16.3826 11.9821 16.2026C12.1161 16.0237 12.1911 16.0023 12.25 16.0023ZM19.75 16.0023C19.8089 16.0023 19.8839 16.0237 20.0179 16.2037C20.1518 16.3826 20.2857 16.6965 20.2857 17.0737C20.2857 17.4508 20.1518 17.7648 20.0179 17.9448C19.8839 18.1237 19.8089 18.1451 19.75 18.1451C19.6911 18.1451 19.6161 18.1237 19.4821 17.9437C19.305 17.6884 19.2114 17.3844 19.2143 17.0737C19.2143 16.6965 19.3482 16.3826 19.4821 16.2026C19.6161 16.0237 19.6911 16.0023 19.75 16.0023Z" fill="#C5C5C5"/>
</svg>
