<svg width="31" height="31" viewBox="0 0 31 31" fill="none" xmlns="http://www.w3.org/2000/svg">
<path d="M4.03003 19.79C4.5919 19.8588 5.00878 20.1169 5.28003 20.565C5.68753 21.2363 7.20128 23.7288 8.92065 23.7288H11.5313M18.62 19.3281C20.1225 19.0156 21.4857 18.4744 22.545 17.6794C24.355 16.3225 25.28 14.2263 25.28 12.155C25.28 10.7019 24.7294 9.34563 23.7757 8.19688C23.2444 7.55688 24.7982 2.78 23.4175 3.42313C22.0363 4.06688 20.0113 5.49063 18.9507 5.17625C17.7585 4.82729 16.5222 4.65174 15.28 4.655C14.155 4.655 13.0725 4.79438 12.0632 5.05188C10.5957 5.425 9.1919 4.03 7.78003 3.42313C6.36753 2.81688 7.13878 7.75688 6.7194 8.27688C5.80503 9.40813 5.28003 10.7356 5.28003 12.155C5.28003 14.2263 6.39878 16.3225 8.20878 17.68C9.41503 18.5838 10.9263 19.16 12.6175 19.4438L18.62 19.3281ZM12.6175 19.4438C11.8938 20.2406 11.5313 20.9975 11.5313 21.7144V27.1619L12.6175 19.4438ZM18.62 19.3281C19.3063 20.2281 19.6494 21.0369 19.6494 21.7531V27.1619L18.62 19.3281Z" stroke="#C5C5C5" stroke-width="2.38538" stroke-linecap="round"/>
</svg>
