<svg width="32" height="32" viewBox="0 0 32 32" fill="none" xmlns="http://www.w3.org/2000/svg">
<path d="M4 25.3333V13.4267C3.99993 12.9878 4.10821 12.5556 4.31521 12.1686C4.52222 11.7815 4.82156 11.4516 5.18667 11.208L14.52 4.98667C14.9582 4.6943 15.4732 4.53827 16 4.53827C16.5268 4.53827 17.0418 4.6943 17.48 4.98667L26.8133 11.208C27.1784 11.4516 27.4778 11.7815 27.6848 12.1686C27.8918 12.5556 28.0001 12.9878 28 13.4267V25.3333M4 25.3333C4 26.0406 4.28095 26.7189 4.78105 27.219C5.28115 27.719 5.95942 28 6.66667 28H25.3333C26.0406 28 26.7189 27.719 27.219 27.219C27.719 26.7189 28 26.0406 28 25.3333M4 25.3333L13 19.3333M28 25.3333L19 19.3333M4 13.3333L13 19.3333M28 13.3333L19 19.3333M19 19.3333L17.48 20.3467C17.0418 20.639 16.5268 20.7951 16 20.7951C15.4732 20.7951 14.9582 20.639 14.52 20.3467L13 19.3333" stroke="#C5C5C5" stroke-width="2" stroke-linecap="round" stroke-linejoin="round"/>
</svg>
