<svg width="32" height="32" viewBox="0 0 32 32" fill="none" xmlns="http://www.w3.org/2000/svg">
<path d="M16 3C8.832 3 3 8.832 3 16C3 23.168 8.832 29 16 29C23.168 29 29 23.168 29 16C29 8.832 23.168 3 16 3ZM16 5C22.065 5 27 9.935 27 16C27 22.065 22.065 27 16 27C10.891 27 6.599 23.494 5.367 18.766L9.033 20.336C9.11321 21.0673 9.46019 21.7433 10.0076 22.2348C10.555 22.7263 11.2643 22.9987 12 23C12.7956 23 13.5587 22.6839 14.1213 22.1213C14.6839 21.5587 15 20.7956 15 20C15 19.968 14.991 19.937 14.99 19.906L19.168 16.984C20.1974 16.9427 21.171 16.5051 21.8851 15.7626C22.5993 15.0201 22.9988 14.0302 23 13C23 11.9391 22.5786 10.9217 21.8284 10.1716C21.0783 9.42143 20.0609 9 19 9C17.97 9.00126 16.9804 9.40079 16.2382 10.115C15.496 10.8292 15.0588 11.8028 15.018 12.832L12.094 17.01C12.062 17.009 12.032 17 12 17C11.337 17 10.73 17.222 10.232 17.586L5.033 15.357C5.37 9.592 10.152 5 16 5ZM19 10C19.7956 10 20.5587 10.3161 21.1213 10.8787C21.6839 11.4413 22 12.2044 22 13C22 13.7956 21.6839 14.5587 21.1213 15.1213C20.5587 15.6839 19.7956 16 19 16C18.2044 16 17.4413 15.6839 16.8787 15.1213C16.3161 14.5587 16 13.7956 16 13C16 12.2044 16.3161 11.4413 16.8787 10.8787C17.4413 10.3161 18.2044 10 19 10ZM19 11C18.4696 11 17.9609 11.2107 17.5858 11.5858C17.2107 11.9609 17 12.4696 17 13C17 13.5304 17.2107 14.0391 17.5858 14.4142C17.9609 14.7893 18.4696 15 19 15C19.5304 15 20.0391 14.7893 20.4142 14.4142C20.7893 14.0391 21 13.5304 21 13C21 12.4696 20.7893 11.9609 20.4142 11.5858C20.0391 11.2107 19.5304 11 19 11ZM12 18C12.3595 17.9992 12.7125 18.0953 13.022 18.2781C13.3315 18.461 13.586 18.7239 13.7586 19.0392C13.9313 19.3545 14.0159 19.7104 14.0033 20.0697C13.9908 20.429 13.8817 20.7782 13.6874 21.0807C13.4932 21.3831 13.221 21.6277 12.8996 21.7885C12.5781 21.9494 12.2192 22.0207 11.8607 21.9948C11.5021 21.969 11.1572 21.8469 10.8621 21.6416C10.5671 21.4363 10.3328 21.1552 10.184 20.828L10.967 21.164C11.3327 21.3201 11.7453 21.3249 12.1145 21.1774C12.4838 21.0299 12.7795 20.7421 12.937 20.377C13.0935 20.0113 13.0982 19.5984 12.9503 19.2291C12.8023 18.8599 12.5137 18.5645 12.148 18.408L11.42 18.096C11.605 18.039 11.797 18 12 18Z" fill="#C5C5C5"/>
</svg>
