<svg width="32" height="32" viewBox="0 0 32 32" fill="none" xmlns="http://www.w3.org/2000/svg">
<path d="M3.33331 23.8413C4.61931 24.5527 13.9273 29.918 20.5466 25.7827C27.1653 21.6473 26.8 14.5227 26.8 11.2573C27.4 10.0013 28.6666 9.36267 28.6666 5.96267C27.4226 7.11201 26.186 7.50267 24.9566 7.13601C23.7526 5.30001 22.096 4.48734 19.986 4.69934C16.822 5.01734 15.6646 8.12134 16.0053 12.138C11.1266 14.6047 7.30131 10.3493 5.32931 7.13601C4.67065 9.66667 4.03598 12.7053 5.32931 16.066C6.19198 18.3073 8.26598 20.2013 11.55 21.75C8.22131 23.5533 5.48265 24.2513 3.33331 23.8413Z" stroke="#C5C5C5" stroke-width="2.5928" stroke-linejoin="round"/>
</svg>
