<svg width="263" height="224" viewBox="0 0 263 224" fill="none" xmlns="http://www.w3.org/2000/svg">
<g clip-path="url(#clip0_1271_6)">
<path d="M232.09 223.127L232.095 222.866C232.214 218.486 233.286 214.184 235.238 210.26C237.19 206.336 239.974 202.883 243.397 200.142C245.329 198.619 247.446 197.346 249.697 196.351L249.912 196.256L249.948 196.487C250.384 199.253 251.075 202.075 251.396 203.328L253.552 194.929L253.792 194.86C254.89 194.538 256.06 194.552 257.151 194.9C258.241 195.248 259.202 195.914 259.91 196.812C260.649 197.71 261.102 198.809 261.21 199.967C261.317 201.124 261.076 202.287 260.515 203.307C260.013 204.241 259.519 205.217 259.041 206.16C257.399 209.401 255.702 212.752 253.228 215.356C251.337 217.309 249.032 218.815 246.483 219.764C243.934 220.713 241.204 221.082 238.494 220.844L232.09 223.127Z" fill="#F2F2F2"/>
<path d="M205.21 219.243L201.458 219.242L199.673 204.794L205.21 204.795L205.21 219.243Z" fill="#FFB6B6"/>
<path d="M205.342 223.15L193.805 223.15V223.004C193.805 221.815 194.278 220.675 195.121 219.834C195.963 218.993 197.105 218.521 198.296 218.521H198.296L200.403 216.925L204.335 218.521L205.342 218.521L205.342 223.15Z" fill="#2F2E41"/>
<path d="M244.043 208.69L241.079 210.986L230.797 200.665L235.171 197.276L244.043 208.69Z" fill="#FFB6B6"/>
<path d="M246.547 211.696L237.433 218.758L237.344 218.643C236.614 217.704 236.287 216.513 236.436 215.333C236.585 214.154 237.197 213.081 238.138 212.352L238.138 212.352L238.823 209.801L242.909 208.655L243.705 208.039L246.547 211.696Z" fill="#2F2E41"/>
<path d="M227.816 138.787C227.816 138.787 227.56 142.699 227.237 148.29C227.184 149.208 227.496 150.204 227.44 151.201C227.403 151.863 226.999 152.507 226.961 153.197C226.922 153.925 227.48 154.57 227.44 155.323C227.401 156.059 226.764 156.903 226.726 157.657C226.312 165.764 224.813 175.468 226.314 178.181C227.054 179.518 238.324 198.042 238.324 198.042C238.324 198.042 233.07 205.911 231.569 203.288C229.586 199.823 214.304 183.615 214.304 180.52C214.304 177.428 210.769 154.259 210.769 154.259L208.304 167.97L207.173 170.687L207.528 172.282L206.798 174.434L206.758 176.564L206.047 180.52C206.047 180.52 208.187 211.337 206.982 212.195C205.773 213.057 199.922 214.604 199.232 213.057C198.545 211.509 195.914 180.894 195.914 180.894C195.914 180.894 195.193 166.865 194.413 153.825C194.368 153.068 193.835 152.153 193.793 151.408C193.745 150.542 194.082 149.418 194.037 148.578C193.989 147.615 193.561 146.937 193.519 146.015C193.2 138.892 193.152 133.279 193.722 132.424C195.445 129.846 196.995 127.785 196.995 127.785C196.995 127.785 221.615 121.767 227.816 129.501L227.816 138.787Z" fill="#6953A8"/>
<path d="M205.672 65.0154L211.608 64.684L216.082 67.1223L228.523 137.463C228.523 137.463 215.805 143.332 207.924 141.084C200.042 138.836 191.742 138.962 191.742 138.962L197.79 71.7604L202.669 67.2638L205.672 65.0154Z" fill="#E6E6E6"/>
<path d="M215.576 66.5068L224.765 70.2533C226.176 70.322 227.522 70.8656 228.584 71.7955C229.646 72.7255 230.361 73.9871 230.613 75.3748L230.004 93.4936L226.69 102.113L229.053 121.748L227.816 124.221L228.885 126.746C227.315 129.29 227.635 132.623 228.566 136.213H227.44L225.188 135.838C225.188 135.838 220.231 137.556 219.215 131.384C216.556 115.228 215.055 122.348 215.055 122.348L213.746 72.2204L215.576 66.5068Z" fill="#6953A8"/>
<path d="M203.045 66.5143L194.461 75.4994C193.05 75.5681 191.704 76.1117 190.642 77.0416C189.58 77.9716 188.865 79.2332 188.612 80.6209L192.161 108.483L190.495 119.174L191.41 121.598L190.748 124.339L191.785 126.845L191.035 130.217L192.161 135.088L197.79 133.59L197.747 129.594L199.249 75.2596L203.045 66.5143Z" fill="#6953A8"/>
<path d="M174.419 112.701L162.726 121.173C162.278 121.196 161.844 121.337 161.468 121.58C161.092 121.824 160.786 122.163 160.583 122.562C160.379 122.961 160.285 123.406 160.308 123.854C160.332 124.301 160.473 124.734 160.718 125.109C160.963 125.485 161.302 125.789 161.702 125.992C162.102 126.194 162.549 126.288 162.996 126.264C163.444 126.24 163.878 126.098 164.253 125.853C164.629 125.609 164.934 125.269 165.136 124.87L181.036 116.395L174.419 112.701Z" fill="#FFB6B6"/>
<path d="M190.659 77.0065C188.437 78.0299 182.947 104.231 181.336 104.786C179.725 105.342 180.34 105.258 180.114 105.722C179.888 106.186 179.833 108.262 178.286 108.506C176.74 108.75 168.567 116.188 168.567 116.188L170.639 123.083C170.639 123.083 186.365 114.113 190.701 109.145C195.037 104.178 197.372 78.6321 197.372 78.6321L197.816 76.0835C197.816 76.0835 192.882 75.9831 190.659 77.0065Z" fill="#6953A8"/>
<path d="M225.925 109.242L215.504 119.233C215.064 119.317 214.653 119.515 214.314 119.808C213.975 120.101 213.719 120.478 213.572 120.902C213.425 121.325 213.393 121.779 213.477 122.219C213.562 122.659 213.762 123.068 214.056 123.406C214.349 123.745 214.727 124 215.151 124.146C215.575 124.292 216.03 124.324 216.471 124.239C216.911 124.154 217.321 123.954 217.66 123.66C217.998 123.366 218.253 122.989 218.399 122.565L232.987 111.996L225.925 109.242Z" fill="#FFB6B6"/>
<path d="M227.44 79.2549C225.379 80.5725 233.211 99.6848 231.691 100.455C230.171 101.226 230.769 101.059 230.609 101.55C230.448 102.04 230.679 104.104 229.18 104.557C227.682 105.01 220.607 113.496 220.607 113.496L223.605 120.043C223.605 120.043 237.952 109.006 241.566 103.493C245.18 97.9791 242.828 96.1173 242.828 96.1173C238.345 86.6098 234.151 71.1044 227.816 72.1351C227.816 72.1351 229.501 77.9372 227.44 79.2549Z" fill="#6953A8"/>
<path d="M206.945 63.5318C212.502 63.5318 217.006 59.0345 217.006 53.4868C217.006 47.9391 212.502 43.4418 206.945 43.4418C201.389 43.4418 196.884 47.9391 196.884 53.4868C196.884 59.0345 201.389 63.5318 206.945 63.5318Z" fill="#FFB6B6"/>
<path d="M217.133 59.9593C217.133 59.9593 214.917 60.5659 213.628 60.9037C213.695 59.9456 214.11 59.0488 214.321 58.1116C214.532 57.1744 214.486 56.0721 213.789 55.4104C213.091 54.7486 211.638 55.0065 211.526 55.9586C210.936 54.6986 210.344 53.4363 209.752 52.1717C208.062 55.6443 204.607 52.6851 200.841 53.5625C198.919 54.0144 196.511 53.8203 195.496 52.1298C196.066 51.6517 196.547 51.076 196.915 50.4296C196.329 50.6011 195.72 50.6782 195.11 50.6579C195.124 50.0532 195.284 49.4607 195.575 48.9302C195.866 48.3997 196.28 47.9468 196.783 47.6096C197.325 47.2559 195.984 45.9976 196.457 45.5547C197.426 44.6506 198.077 45.2645 198.65 44.0729C199.019 43.336 199.589 42.7175 200.293 42.2876C200.997 41.8578 201.808 41.634 202.633 41.6416C204.28 41.6801 207.23 41.6642 207.869 43.1787C209.904 41.8481 212.738 42.224 214.728 43.6199C216.383 44.7756 218.265 48.269 218.68 50.2411C219.096 52.2131 218.18 58.2406 217.133 59.9593Z" fill="#413C2E"/>
<path d="M92.5149 37.8481H28.0928C26.9342 37.863 25.8129 37.4391 24.9547 36.6617C24.0965 35.8844 23.565 34.8113 23.4674 33.6585C23.4256 33.0436 23.5108 32.4267 23.7177 31.8461C23.9246 31.2654 24.2487 30.7334 24.67 30.283C25.0913 29.8326 25.6009 29.4734 26.1669 29.2277C26.733 28.9821 27.3436 28.8551 27.9609 28.8548H92.5149C93.7094 28.8548 94.8549 29.3285 95.6995 30.1718C96.5442 31.0151 97.0187 32.1589 97.0187 33.3514C97.0187 34.544 96.5442 35.6878 95.6995 36.5311C94.8549 37.3744 93.7094 37.8481 92.5149 37.8481H92.5149Z" fill="#6953A8"/>
<path d="M129.572 45.1552H23.6448C23.5452 45.1552 23.4498 45.1157 23.3794 45.0454C23.309 44.9752 23.2695 44.8798 23.2695 44.7805C23.2695 44.6811 23.309 44.5858 23.3794 44.5155C23.4498 44.4452 23.5452 44.4057 23.6448 44.4057H129.572C129.672 44.4057 129.767 44.4452 129.837 44.5155C129.908 44.5858 129.947 44.6811 129.947 44.7805C129.947 44.8798 129.908 44.9752 129.837 45.0454C129.767 45.1157 129.672 45.1552 129.572 45.1552Z" fill="#E6E6E6"/>
<path d="M125.167 38.0355H27.9609C26.7166 38.0355 25.5234 37.542 24.6435 36.6635C23.7637 35.7851 23.2695 34.5937 23.2695 33.3514C23.2695 32.1092 23.7637 30.9178 24.6435 30.0393C25.5234 29.1609 26.7166 28.6674 27.9609 28.6674H125.167C126.411 28.6674 127.605 29.1609 128.485 30.0393C129.364 30.9178 129.859 32.1092 129.859 33.3514C129.859 34.5937 129.364 35.7851 128.485 36.6635C127.605 37.542 126.411 38.0355 125.167 38.0355ZM27.9609 29.4169C26.9157 29.4169 25.9134 29.8314 25.1743 30.5693C24.4353 31.3072 24.0201 32.3079 24.0201 33.3514C24.0201 34.395 24.4353 35.3957 25.1743 36.1336C25.9134 36.8715 26.9157 37.286 27.9609 37.286H125.167C126.212 37.286 127.215 36.8715 127.954 36.1336C128.693 35.3957 129.108 34.395 129.108 33.3514C129.108 32.3079 128.693 31.3072 127.954 30.5693C127.215 29.8314 126.212 29.4169 125.167 29.4169H27.9609Z" fill="#9795BB"/>
<path d="M63.6157 73.072H28.0928C26.9342 73.0868 25.8129 72.6629 24.9547 71.8856C24.0965 71.1082 23.565 70.0351 23.4674 68.8823C23.4256 68.2675 23.5108 67.6506 23.7177 67.0699C23.9246 66.4893 24.2487 65.9573 24.67 65.5069C25.0913 65.0565 25.6009 64.6973 26.1669 64.4516C26.733 64.2059 27.3436 64.079 27.9609 64.0786H63.6157C64.8102 64.0786 65.9557 64.5524 66.8004 65.3957C67.645 66.239 68.1195 67.3827 68.1195 68.5753C68.1195 69.7679 67.645 70.9116 66.8004 71.7549C65.9557 72.5982 64.8102 73.072 63.6157 73.072H63.6157Z" fill="#6953A8"/>
<path d="M129.572 80.379H23.6448C23.5452 80.379 23.4498 80.3396 23.3794 80.2693C23.309 80.199 23.2695 80.1037 23.2695 80.0043C23.2695 79.9049 23.309 79.8096 23.3794 79.7394C23.4498 79.6691 23.5452 79.6296 23.6448 79.6296H129.572C129.672 79.6296 129.767 79.6691 129.837 79.7394C129.908 79.8096 129.947 79.9049 129.947 80.0043C129.947 80.1037 129.908 80.199 129.837 80.2693C129.767 80.3396 129.672 80.379 129.572 80.379Z" fill="#E6E6E6"/>
<path d="M125.167 73.2593H27.9609C26.7166 73.2593 25.5234 72.7658 24.6435 71.8874C23.7637 71.009 23.2695 69.8176 23.2695 68.5753C23.2695 67.333 23.7637 66.1416 24.6435 65.2632C25.5234 64.3848 26.7166 63.8913 27.9609 63.8913H125.167C126.411 63.8913 127.605 64.3848 128.485 65.2632C129.364 66.1416 129.859 67.333 129.859 68.5753C129.859 69.8176 129.364 71.009 128.485 71.8874C127.605 72.7658 126.411 73.2593 125.167 73.2593ZM27.9609 64.6407C26.9157 64.6407 25.9134 65.0552 25.1743 65.7931C24.4353 66.531 24.0201 67.5318 24.0201 68.5753C24.0201 69.6188 24.4353 70.6196 25.1743 71.3575C25.9134 72.0953 26.9157 72.5099 27.9609 72.5099H125.167C126.212 72.5099 127.215 72.0953 127.954 71.3575C128.693 70.6196 129.108 69.6188 129.108 68.5753C129.108 67.5318 128.693 66.531 127.954 65.7931C127.215 65.0552 126.212 64.6407 125.167 64.6407H27.9609Z" fill="#9795BB"/>
<path d="M111.281 108.296H28.0928C26.9342 108.311 25.8129 107.887 24.9547 107.109C24.0965 106.332 23.565 105.259 23.4674 104.106C23.4256 103.491 23.5108 102.874 23.7177 102.294C23.9246 101.713 24.2487 101.181 24.67 100.731C25.0913 100.28 25.6009 99.9211 26.1669 99.6755C26.733 99.4298 27.3436 99.3028 27.9609 99.3025H111.281C112.475 99.3025 113.621 99.7763 114.465 100.62C115.31 101.463 115.784 102.607 115.784 103.799C115.784 104.992 115.31 106.135 114.465 106.979C113.621 107.822 112.475 108.296 111.281 108.296H111.281Z" fill="#6953A8"/>
<path d="M129.572 115.603H23.6448C23.5452 115.603 23.4498 115.563 23.3794 115.493C23.309 115.423 23.2695 115.328 23.2695 115.228C23.2695 115.129 23.309 115.033 23.3794 114.963C23.4498 114.893 23.5452 114.853 23.6448 114.853H129.572C129.672 114.853 129.767 114.893 129.837 114.963C129.908 115.033 129.947 115.129 129.947 115.228C129.947 115.328 129.908 115.423 129.837 115.493C129.767 115.563 129.672 115.603 129.572 115.603Z" fill="#E6E6E6"/>
<path d="M125.167 108.483H27.9609C26.7166 108.483 25.5234 107.99 24.6435 107.111C23.7637 106.233 23.2695 105.041 23.2695 103.799C23.2695 102.557 23.7637 101.365 24.6435 100.487C25.5234 99.6086 26.7166 99.1151 27.9609 99.1151H125.167C126.411 99.1151 127.605 99.6086 128.485 100.487C129.364 101.365 129.859 102.557 129.859 103.799C129.859 105.041 129.364 106.233 128.485 107.111C127.605 107.99 126.411 108.483 125.167 108.483ZM27.9609 99.8646C26.9157 99.8646 25.9134 100.279 25.1743 101.017C24.4353 101.755 24.0201 102.756 24.0201 103.799C24.0201 104.843 24.4353 105.843 25.1743 106.581C25.9134 107.319 26.9157 107.734 27.9609 107.734H125.167C126.212 107.734 127.215 107.319 127.954 106.581C128.693 105.843 129.108 104.843 129.108 103.799C129.108 102.756 128.693 101.755 127.954 101.017C127.215 100.279 126.212 99.8646 125.167 99.8646H27.9609Z" fill="#9795BB"/>
<path d="M86.4025 33.2775H85.6519V4.40785H139.944V5.1573H86.4025V33.2775Z" fill="#CCCCCC"/>
<path d="M142.264 8.95278C144.74 8.95278 146.748 6.94863 146.748 4.47639C146.748 2.00415 144.74 0 142.264 0C139.788 0 137.781 2.00415 137.781 4.47639C137.781 6.94863 139.788 8.95278 142.264 8.95278Z" fill="#CCCCCC"/>
<path d="M60.3452 68.5014H61.0958V51.9975H6.80406V52.747H60.3452V68.5014Z" fill="#CCCCCC"/>
<path d="M4.48346 56.5425C6.95961 56.5425 8.96692 54.5383 8.96692 52.0661C8.96692 49.5938 6.95961 47.5897 4.48346 47.5897C2.00731 47.5897 0 49.5938 0 52.0661C0 54.5383 2.00731 56.5425 4.48346 56.5425Z" fill="#CCCCCC"/>
<path d="M111.173 104.997H110.423V125.623H156.457V124.874H111.173V104.997Z" fill="#CCCCCC"/>
<path d="M158.778 130.031C161.254 130.031 163.262 128.027 163.262 125.554C163.262 123.082 161.254 121.078 158.778 121.078C156.302 121.078 154.295 123.082 154.295 125.554C154.295 128.027 156.302 130.031 158.778 130.031Z" fill="#CCCCCC"/>
<path d="M262.553 223.885L160.562 224C160.503 224 160.445 223.989 160.39 223.966C160.336 223.944 160.286 223.911 160.245 223.87C160.203 223.828 160.17 223.779 160.148 223.725C160.125 223.671 160.113 223.613 160.113 223.554C160.113 223.495 160.125 223.437 160.148 223.383C160.17 223.329 160.203 223.279 160.245 223.238C160.286 223.196 160.336 223.164 160.39 223.141C160.445 223.119 160.503 223.107 160.562 223.108L262.553 222.992C262.672 222.992 262.785 223.04 262.869 223.123C262.953 223.207 263 223.32 263 223.439C263 223.557 262.953 223.67 262.869 223.754C262.785 223.838 262.672 223.885 262.553 223.885Z" fill="#CACACA"/>
<path d="M221.465 66.5154C221.231 66.1491 220.864 65.8882 220.44 65.788C220.017 65.6878 219.571 65.7561 219.197 65.9786C219.749 65.2131 219.333 63.9049 218.468 63.3762C217.489 62.7771 216.251 62.8763 215.108 62.9955L205.742 63.9723C204.662 64.0849 203.552 64.2063 202.591 64.7103C201.629 65.2143 200.838 66.198 200.894 67.2808C200.16 67.0118 199.376 66.9057 198.596 66.9696C197.826 67.0908 197.067 67.6526 196.985 68.4265C196.853 69.6684 198.331 70.3856 199.534 70.726C201.769 71.3581 204.003 71.9903 206.237 72.6224L205.548 72.7694C209.946 73.1532 214.372 72.5138 218.48 70.9016C219.421 70.531 220.375 70.0872 221.034 69.3207C221.693 68.5541 221.981 67.3848 221.465 66.5154Z" fill="#E6E6E6"/>
</g>
<defs>
<clipPath id="clip0_1271_6">
<rect width="263" height="224" fill="white"/>
</clipPath>
</defs>
</svg>
